# xmcd CD database file generated by OrangeCD 6.2
#
# Track frame offsets:
#	150
#	2905
#	21045
#	75945
#	145742
#	162062
#
# Disc length: 2367 seconds
#
# Revision: 6
# Processed by: cddbd v1.5.2PL0 Copyright (c) Steve Scherf et al.
# Submitted via: OrangeCD 6.2
#
DISCID=35093d06
DTITLE=Solomon Burke - Soul Alive!
DYEAR=2002
DGENRE=Soul
TTITLE0=Introduction
TTITLE1=Everybody Needs Somebody To Love
TTITLE2=Medley: If You Need Me - Tonight's the Night - You're Good For Me - I A
TTITLE2=lmost Lost My Mind - What Am I Living For - Just Out Of Reach
TTITLE3=Medley: Monologue - Take Me (Just As I Am) - I Can't Stop Loving You - 
TTITLE3=Monologue - I Can't Stop Loving You (reprise)
TTITLE4=Down In The Valley
TTITLE5=Proud Mary
EXTD=
EXTT0=
EXTT1=
EXTT2=
EXTT3=
EXTT4=
EXTT5=
PLAYORDER=
